<svg width="22" height="26" viewBox="0 0 22 26" fill="none" xmlns="http://www.w3.org/2000/svg">
<path d="M21.5926 19.7468C20.4795 19.0676 19.7881 17.8342 19.7881 16.5301V9.68155C19.7881 4.8358 15.8458 0.893555 11.0001 0.893555C6.15433 0.893555 2.21208 4.8358 2.21208 9.68155V16.5301C2.21208 17.8342 1.52064 19.0676 0.407515 19.7468C0.128015 19.9174 -0.00361013 20.2538 0.0849524 20.5691C0.173515 20.8843 0.46114 21.1021 0.788577 21.1021H21.2108C21.5382 21.1021 21.8258 20.8843 21.9144 20.5691C22.0038 20.2538 21.8713 19.9174 21.5926 19.7468ZM2.64514 19.6396C3.30083 18.7499 3.67458 17.6587 3.67458 16.5301V9.68155C3.67458 5.6418 6.96033 2.35605 11.0001 2.35605C15.0398 2.35605 18.3256 5.6418 18.3256 9.68155V16.5301C18.3256 17.6595 18.6985 18.7499 19.355 19.6396H2.64514Z" fill="black"/>
<path d="M12.7632 22.948C12.4406 23.3705 11.7492 23.6435 11.0001 23.6435C10.2509 23.6435 9.5595 23.3705 9.23694 22.948C8.99075 22.6262 8.53169 22.5645 8.21238 22.8098C7.89063 23.0544 7.82888 23.5135 8.07425 23.8344C8.67144 24.6185 9.79269 25.106 11.0001 25.106C12.2074 25.106 13.3287 24.6185 13.9267 23.8344C14.1713 23.5135 14.1095 23.0544 13.7886 22.8098C13.4676 22.5645 13.0086 22.6254 12.7632 22.948Z" fill="black"/>
</svg>
