<svg width="18" height="18" viewBox="0 0 18 18" fill="none" xmlns="http://www.w3.org/2000/svg">
<g clip-path="url(#clip0_2_287)">
<path d="M17.1772 4.90348C16.6702 4.64998 16.0725 4.70323 15.6195 5.04448C15.5903 5.06623 15.5625 5.09098 15.537 5.11648L14.2192 6.44623C14.061 4.52248 12.4635 3.00073 10.5 3.00073H3.75C1.68225 2.99998 0 4.68223 0 6.74998V11.25C0 13.3177 1.68225 15 3.75 15H10.5C12.4718 15 14.076 13.4647 14.2215 11.5297L15.5385 12.8452C15.564 12.87 15.5903 12.8925 15.6188 12.9142C15.8828 13.1122 16.1947 13.2127 16.5098 13.2127C16.737 13.2127 16.9643 13.161 17.1772 13.0545C17.685 12.801 18 12.2902 18 11.724V6.23548C18 5.66773 17.685 5.15698 17.1772 4.90348ZM10.5 13.5H3.75C2.5095 13.5 1.5 12.4905 1.5 11.25V6.74998C1.5 5.50948 2.5095 4.49998 3.75 4.49998H10.5C11.7405 4.49998 12.75 5.50948 12.75 6.74998V11.25C12.75 12.4905 11.7405 13.5 10.5 13.5ZM14.25 9.43723V8.54548L16.5 6.27448L16.5187 11.703L14.25 9.43648V9.43723Z" fill="#A5A5A5"/>
</g>
<defs>
<clipPath id="clip0_2_287">
<rect width="18" height="18" fill="white"/>
</clipPath>
</defs>
</svg>
