<svg width="20" height="20" viewBox="0 0 20 20" fill="none" xmlns="http://www.w3.org/2000/svg">
<g clip-path="url(#clip0_2_516)">
<path d="M10 0C4.48583 0 0 4.48583 0 10C0 15.5142 4.48583 20 10 20H20V10C20 4.48583 15.5142 0 10 0ZM18.3333 18.3333H10C5.405 18.3333 1.66667 14.595 1.66667 10C1.66667 5.405 5.405 1.66667 10 1.66667C14.595 1.66667 18.3333 5.405 18.3333 10V18.3333ZM11.25 10C11.25 10.69 10.69 11.25 10 11.25C9.31 11.25 8.75 10.69 8.75 10C8.75 9.31 9.31 8.75 10 8.75C10.69 8.75 11.25 9.31 11.25 10ZM15.4167 10C15.4167 10.69 14.8567 11.25 14.1667 11.25C13.4767 11.25 12.9167 10.69 12.9167 10C12.9167 9.31 13.4767 8.75 14.1667 8.75C14.8567 8.75 15.4167 9.31 15.4167 10ZM7.08333 10C7.08333 10.69 6.52333 11.25 5.83333 11.25C5.14333 11.25 4.58333 10.69 4.58333 10C4.58333 9.31 5.14333 8.75 5.83333 8.75C6.52333 8.75 7.08333 9.31 7.08333 10Z" fill="black"/>
</g>
<defs>
<clipPath id="clip0_2_516">
<rect width="20" height="20" fill="white"/>
</clipPath>
</defs>
</svg>
