<svg width="20" height="21" viewBox="0 0 20 21" fill="none" xmlns="http://www.w3.org/2000/svg">
<path d="M10.0001 13.8333C9.8904 13.8339 9.78168 13.8129 9.68015 13.7714C9.57862 13.73 9.48627 13.6689 9.40841 13.5916L4.40841 8.59162C4.25149 8.4347 4.16333 8.22187 4.16333 7.99995C4.16333 7.77803 4.25149 7.5652 4.40841 7.40828C4.56533 7.25136 4.77816 7.16321 5.00007 7.16321C5.22199 7.16321 5.43482 7.25136 5.59174 7.40828L10.0001 11.825L14.4084 7.41662C14.5678 7.2801 14.7729 7.20876 14.9826 7.21686C15.1923 7.22496 15.3913 7.3119 15.5397 7.46032C15.6881 7.60873 15.7751 7.80768 15.7832 8.01741C15.7913 8.22714 15.7199 8.4322 15.5834 8.59162L10.5834 13.5916C10.4282 13.7456 10.2187 13.8324 10.0001 13.8333Z" fill="black"/>
</svg>
