<svg width="20" height="20" viewBox="0 0 20 20" fill="none" xmlns="http://www.w3.org/2000/svg">
<g clip-path="url(#clip0_2_511)">
<path d="M14.5833 0.76416C13.645 0.778756 12.7271 1.0407 11.9223 1.52355C11.1176 2.0064 10.4545 2.69305 10 3.51416C9.54554 2.69305 8.88245 2.0064 8.0777 1.52355C7.27296 1.0407 6.35505 0.778756 5.41667 0.76416C3.92079 0.829152 2.51143 1.48354 1.49649 2.58435C0.481556 3.68517 -0.0564528 5.14293 5.93206e-06 6.63916C5.93206e-06 12.285 9.13001 18.8058 9.51834 19.0825L10 19.4233L10.4817 19.0825C10.87 18.8075 20 12.285 20 6.63916C20.0565 5.14293 19.5185 3.68517 18.5035 2.58435C17.4886 1.48354 16.0792 0.829152 14.5833 0.76416Z" fill="white"/>
</g>
<defs>
<clipPath id="clip0_2_511">
<rect width="20" height="20" fill="white"/>
</clipPath>
</defs>
</svg>
