<svg width="12" height="12" viewBox="0 0 12 12" fill="none" xmlns="http://www.w3.org/2000/svg">
<g clip-path="url(#clip0_47_114)">
<path d="M0.0863169 1.85434C-0.107683 1.32334 0.0383169 0.735342 0.458817 0.356842C0.878317 -0.0201582 1.47582 -0.105158 1.98282 0.141342L11.0278 4.36334C11.5128 4.59034 11.8598 5.00484 12.0003 5.49984H2.02432L0.114817 1.91784C0.104317 1.89734 0.0948169 1.87584 0.0863169 1.85434ZM2.03132 6.50034L0.154817 10.0878C0.144317 10.1078 0.135317 10.1278 0.127817 10.1488C-0.0656831 10.6803 0.0818169 11.2673 0.502317 11.6453C0.762817 11.8788 1.09182 11.9993 1.42282 11.9993C1.62732 11.9993 1.83232 11.9533 2.02332 11.8598L11.0288 7.64084C11.5153 7.41284 11.8618 6.99684 12.0013 6.50084H2.03132V6.50034Z" fill="white"/>
</g>
<defs>
<clipPath id="clip0_47_114">
<rect width="12" height="12" fill="white"/>
</clipPath>
</defs>
</svg>
