<svg width="18" height="18" viewBox="0 0 18 18" fill="none" xmlns="http://www.w3.org/2000/svg">
<path d="M17.7802 16.7198L13.3035 12.2431C14.5234 10.751 15.1232 8.84715 14.9788 6.92525C14.8344 5.00335 13.9569 3.21048 12.5276 1.91747C11.0984 0.624463 9.2269 -0.0697502 7.30019 -0.0215763C5.37348 0.0265975 3.53899 0.813473 2.17617 2.17629C0.813351 3.53911 0.0264754 5.3736 -0.0216984 7.30031C-0.0698723 9.22702 0.624341 11.0985 1.91735 12.5278C3.21036 13.957 5.00323 14.8346 6.92513 14.979C8.84703 15.1234 10.7509 14.5235 12.243 13.3036L16.7197 17.7803C16.8612 17.9169 17.0506 17.9925 17.2473 17.9908C17.4439 17.9891 17.632 17.9102 17.7711 17.7712C17.9101 17.6321 17.989 17.444 17.9907 17.2474C17.9924 17.0507 17.9168 16.8613 17.7802 16.7198ZM7.49996 13.5001C6.31327 13.5001 5.15323 13.1482 4.16654 12.4889C3.17984 11.8296 2.41081 10.8925 1.95668 9.79618C1.50256 8.69982 1.38374 7.49342 1.61525 6.32954C1.84676 5.16565 2.4182 4.09655 3.25732 3.25744C4.09643 2.41832 5.16553 1.84688 6.32942 1.61537C7.4933 1.38386 8.6997 1.50268 9.79606 1.9568C10.8924 2.41093 11.8295 3.17996 12.4888 4.16666C13.1481 5.15335 13.5 6.31339 13.5 7.50008C13.4982 9.09083 12.8655 10.6159 11.7406 11.7407C10.6158 12.8656 9.09071 13.4983 7.49996 13.5001Z" fill="#03665C"/>
</svg>
