<svg width="18" height="18" viewBox="0 0 18 18" fill="none" xmlns="http://www.w3.org/2000/svg">
<g clip-path="url(#clip0_9_370)">
<path d="M9 6C8.40666 6 7.82664 6.17595 7.33329 6.50559C6.83994 6.83524 6.45543 7.30377 6.22836 7.85195C6.0013 8.40013 5.94189 9.00333 6.05765 9.58527C6.1734 10.1672 6.45912 10.7018 6.87868 11.1213C7.29824 11.5409 7.83279 11.8266 8.41473 11.9424C8.99667 12.0581 9.59987 11.9987 10.1481 11.7716C10.6962 11.5446 11.1648 11.1601 11.4944 10.6667C11.8241 10.1734 12 9.59334 12 9C12 8.20435 11.6839 7.44129 11.1213 6.87868C10.5587 6.31607 9.79565 6 9 6ZM9 10.5C8.70333 10.5 8.41332 10.412 8.16665 10.2472C7.91997 10.0824 7.72771 9.84811 7.61418 9.57403C7.50065 9.29994 7.47095 8.99834 7.52882 8.70736C7.5867 8.41639 7.72956 8.14912 7.93934 7.93934C8.14912 7.72956 8.41639 7.5867 8.70737 7.52882C8.99834 7.47094 9.29994 7.50065 9.57403 7.61418C9.84812 7.72771 10.0824 7.91997 10.2472 8.16665C10.412 8.41332 10.5 8.70333 10.5 9C10.5 9.39783 10.342 9.77936 10.0607 10.0607C9.77936 10.342 9.39783 10.5 9 10.5Z" fill="black"/>
<path d="M15.9706 10.425L15.6376 10.233C15.7875 9.41733 15.7875 8.58117 15.6376 7.7655L15.9706 7.5735C16.2267 7.42576 16.4511 7.22903 16.6312 6.99455C16.8112 6.76006 16.9433 6.4924 17.0199 6.20686C17.0966 5.92132 17.1162 5.62349 17.0777 5.33037C17.0392 5.03725 16.9433 4.75458 16.7956 4.4985C16.6479 4.24242 16.4511 4.01795 16.2166 3.8379C15.9822 3.65785 15.7145 3.52575 15.429 3.44915C15.1434 3.37254 14.8456 3.35292 14.5525 3.39142C14.2593 3.42991 13.9767 3.52576 13.7206 3.6735L13.3868 3.86625C12.7565 3.32769 12.0321 2.91019 11.2501 2.63475V2.25C11.2501 1.65326 11.013 1.08097 10.5911 0.65901C10.1691 0.237053 9.59683 0 9.00009 0C8.40336 0 7.83106 0.237053 7.4091 0.65901C6.98715 1.08097 6.75009 1.65326 6.75009 2.25V2.63475C5.96813 2.91118 5.24398 3.3297 4.61409 3.86925L4.27884 3.675C3.76167 3.37663 3.14715 3.29593 2.57048 3.45065C1.99381 3.60536 1.50221 3.98283 1.20384 4.5C0.905475 5.01717 0.824772 5.63169 0.97949 6.20836C1.13421 6.78504 1.51167 7.27663 2.02884 7.575L2.36184 7.767C2.21193 8.58267 2.21193 9.41883 2.36184 10.2345L2.02884 10.4265C1.51167 10.7249 1.13421 11.2165 0.97949 11.7931C0.824772 12.3698 0.905475 12.9843 1.20384 13.5015C1.50221 14.0187 1.99381 14.3961 2.57048 14.5509C3.14715 14.7056 3.76167 14.6249 4.27884 14.3265L4.61259 14.1337C5.24317 14.6724 5.96783 15.0899 6.75009 15.3652V15.75C6.75009 16.3467 6.98715 16.919 7.4091 17.341C7.83106 17.7629 8.40336 18 9.00009 18C9.59683 18 10.1691 17.7629 10.5911 17.341C11.013 16.919 11.2501 16.3467 11.2501 15.75V15.3652C12.0321 15.0888 12.7562 14.6703 13.3861 14.1307L13.7213 14.3243C14.2385 14.6226 14.853 14.7033 15.4297 14.5486C16.0064 14.3939 16.498 14.0164 16.7963 13.4993C17.0947 12.9821 17.1754 12.3676 17.0207 11.7909C16.866 11.2142 16.4885 10.7226 15.9713 10.4242L15.9706 10.425ZM14.0596 7.593C14.3136 8.5133 14.3136 9.4852 14.0596 10.4055C14.0152 10.5657 14.0254 10.7361 14.0883 10.8899C14.1513 11.0437 14.2636 11.1722 14.4076 11.2552L15.2206 11.7248C15.393 11.8242 15.5187 11.9881 15.5703 12.1803C15.6218 12.3725 15.5949 12.5773 15.4955 12.7496C15.396 12.922 15.2322 13.0478 15.04 13.0993C14.8478 13.1509 14.643 13.124 14.4706 13.0245L13.6561 12.5535C13.512 12.4701 13.3443 12.4369 13.1793 12.4593C13.0143 12.4817 12.8615 12.5584 12.7448 12.6772C12.0773 13.3587 11.2363 13.845 10.3126 14.0835C10.1514 14.125 10.0085 14.2189 9.90654 14.3504C9.80456 14.482 9.74926 14.6438 9.74934 14.8102V15.75C9.74934 15.9489 9.67033 16.1397 9.52967 16.2803C9.38902 16.421 9.19826 16.5 8.99934 16.5C8.80043 16.5 8.60967 16.421 8.46901 16.2803C8.32836 16.1397 8.24934 15.9489 8.24934 15.75V14.811C8.24943 14.6445 8.19412 14.4828 8.09215 14.3512C7.99017 14.2196 7.84732 14.1257 7.68609 14.0842C6.76235 13.8448 5.92159 13.3575 5.25459 12.675C5.13799 12.5561 4.98515 12.4795 4.82016 12.4571C4.65517 12.4347 4.48742 12.4678 4.34334 12.5513L3.53034 13.0215C3.44501 13.0715 3.35064 13.1042 3.25264 13.1176C3.15464 13.131 3.05496 13.1249 2.95933 13.0996C2.86371 13.0743 2.77403 13.0303 2.69546 12.9703C2.61689 12.9102 2.55098 12.8352 2.50152 12.7495C2.45206 12.6638 2.42004 12.5692 2.40729 12.4712C2.39454 12.3731 2.40132 12.2734 2.42724 12.178C2.45315 12.0825 2.49769 11.9931 2.55829 11.915C2.61889 11.8368 2.69436 11.7714 2.78034 11.7225L3.59334 11.253C3.7373 11.1699 3.8496 11.0414 3.91259 10.8876C3.97558 10.7338 3.98569 10.5634 3.94134 10.4032C3.68736 9.48295 3.68736 8.51105 3.94134 7.59075C3.98489 7.43091 3.9743 7.26115 3.9112 7.10797C3.84811 6.95479 3.73608 6.8268 3.59259 6.744L2.77959 6.2745C2.60724 6.17504 2.48145 6.01119 2.4299 5.81899C2.37835 5.62679 2.40526 5.42198 2.50472 5.24962C2.60417 5.07727 2.76803 4.95148 2.96023 4.89993C3.15243 4.84838 3.35724 4.87529 3.52959 4.97475L4.34409 5.44575C4.48778 5.52939 4.65518 5.56291 4.81999 5.54105C4.9848 5.51919 5.13768 5.4432 5.25459 5.325C5.92216 4.64351 6.76316 4.15727 7.68684 3.91875C7.84857 3.87717 7.99179 3.78281 8.09382 3.65063C8.19585 3.51844 8.25084 3.35598 8.25009 3.189V2.25C8.25009 2.05109 8.32911 1.86032 8.46976 1.71967C8.61042 1.57902 8.80118 1.5 9.00009 1.5C9.19901 1.5 9.38977 1.57902 9.53042 1.71967C9.67108 1.86032 9.75009 2.05109 9.75009 2.25V3.189C9.75001 3.35547 9.80531 3.51723 9.90729 3.64881C10.0093 3.78039 10.1521 3.8743 10.3133 3.91575C11.2374 4.15511 12.0784 4.64241 12.7456 5.325C12.8622 5.44385 13.015 5.52052 13.18 5.54292C13.345 5.56533 13.5128 5.5322 13.6568 5.44875L14.4698 4.9785C14.5552 4.92848 14.6496 4.89583 14.7476 4.88243C14.8455 4.86903 14.9452 4.87514 15.0409 4.90043C15.1365 4.92571 15.2262 4.96965 15.3047 5.02974C15.3833 5.08982 15.4492 5.16485 15.4987 5.2505C15.5481 5.33616 15.5801 5.43076 15.5929 5.52884C15.6056 5.62693 15.5989 5.72656 15.573 5.82202C15.547 5.91747 15.5025 6.00686 15.4419 6.08503C15.3813 6.1632 15.3058 6.22861 15.2198 6.2775L14.4068 6.747C14.2636 6.83003 14.1519 6.95811 14.0891 7.11127C14.0263 7.26443 14.0159 7.43407 14.0596 7.59375V7.593Z" fill="black"/>
</g>
<defs>
<clipPath id="clip0_9_370">
<rect width="18" height="18" fill="white"/>
</clipPath>
</defs>
</svg>
