<svg width="18" height="18" viewBox="0 0 18 18" fill="none" xmlns="http://www.w3.org/2000/svg">
<g clip-path="url(#clip0_9_376)">
<path d="M9.393 6.75C9.59191 6.75 9.78268 6.67098 9.92333 6.53033C10.064 6.38968 10.143 6.19891 10.143 6L10.143 3.75C10.143 3.15326 10.3801 2.58097 10.802 2.15901C11.224 1.73705 11.7963 1.5 12.393 1.5L14.25 1.5C14.8467 1.5 15.419 1.73705 15.841 2.15901C16.2629 2.58097 16.5 3.15326 16.5 3.75L16.5 14.25C16.5 14.8467 16.2629 15.419 15.841 15.841C15.419 16.2629 14.8467 16.5 14.25 16.5L12.393 16.5C11.7963 16.5 11.224 16.2629 10.802 15.841C10.3801 15.419 10.143 14.8467 10.143 14.25L10.143 12C10.143 11.8011 10.064 11.6103 9.92333 11.4697C9.78268 11.329 9.59191 11.25 9.393 11.25C9.19409 11.25 9.00332 11.329 8.86267 11.4697C8.72202 11.6103 8.643 11.8011 8.643 12L8.643 14.25C8.64419 15.2442 9.03966 16.1973 9.74266 16.9003C10.4457 17.6033 11.3988 17.9988 12.393 18L14.25 18C15.2442 17.9988 16.1973 17.6033 16.9003 16.9003C17.6033 16.1973 17.9988 15.2442 18 14.25L18 3.75C17.9988 2.7558 17.6033 1.80267 16.9003 1.09966C16.1973 0.39666 15.2442 0.00118994 14.25 -3.27835e-07L12.393 -4.9018e-07C11.3988 0.00118961 10.4457 0.396659 9.74267 1.09966C9.03966 1.80267 8.64419 2.7558 8.643 3.75L8.643 6C8.643 6.19891 8.72202 6.38968 8.86267 6.53033C9.00332 6.67098 9.19409 6.75 9.393 6.75Z" fill="#F46F6F"/>
<path d="M0.84975 10.5908L4.28925 14.0303C4.35843 14.1019 4.44119 14.1591 4.5327 14.1984C4.6242 14.2377 4.72261 14.2584 4.8222 14.2592C4.92178 14.2601 5.02054 14.2411 5.11271 14.2034C5.20489 14.1657 5.28863 14.11 5.35905 14.0396C5.42947 13.9692 5.48516 13.8854 5.52287 13.7933C5.56058 13.7011 5.57955 13.6023 5.57869 13.5028C5.57782 13.4032 5.55713 13.3048 5.51783 13.2133C5.47852 13.1218 5.42138 13.039 5.34975 12.9698L2.15325 9.77256L13.5 9.75006C13.6989 9.75006 13.8897 9.67104 14.0303 9.53039C14.171 9.38974 14.25 9.19897 14.25 9.00006C14.25 8.80115 14.171 8.61038 14.0303 8.46973C13.8897 8.32908 13.6989 8.25006 13.5 8.25006L2.109 8.27331L5.35125 5.03031C5.42288 4.96113 5.48002 4.87837 5.51933 4.78686C5.55863 4.69536 5.57932 4.59695 5.58019 4.49736C5.58105 4.39778 5.56208 4.29902 5.52437 4.20685C5.48666 4.11467 5.43097 4.03093 5.36055 3.96051C5.29013 3.89009 5.20639 3.8344 5.11422 3.79669C5.02204 3.75898 4.92328 3.74001 4.8237 3.74087C4.72412 3.74174 4.6257 3.76243 4.5342 3.80174C4.44269 3.84104 4.35994 3.89818 4.29075 3.96981L0.85125 7.40931C0.429242 7.83105 0.192011 8.40313 0.191731 8.99975C0.19145 9.59637 0.428139 10.1687 0.84975 10.5908Z" fill="#F46F6F"/>
</g>
<defs>
<clipPath id="clip0_9_376">
<rect width="18" height="18" fill="white" transform="translate(18 18) rotate(-180)"/>
</clipPath>
</defs>
</svg>
