<svg width="512" height="512" viewBox="0 0 512 512" fill="none" xmlns="http://www.w3.org/2000/svg">
<path d="M452.224 145.062C452.224 110.298 424.41 82.304 389.632 82.304C368.474 82.304 349.978 92.672 338.726 108.621C311.872 91.6992 280.038 81.9072 245.76 81.9072C148.902 81.9072 71.9104 159.872 71.9104 256.73C71.9104 353.574 148.902 430.579 245.76 430.579C342.605 430.579 420.096 353.587 420.096 256.73C420.096 238.131 417.242 220.237 411.942 203.456C435.571 194.586 452.224 171.955 452.224 145.062ZM245.76 353.088C192.973 353.088 149.389 309.504 149.389 256.717C149.389 203.443 192.973 159.386 245.76 159.386C299.034 159.386 342.605 203.456 342.605 256.717C342.605 309.504 299.021 353.088 245.76 353.088ZM389.606 191.206C364.365 191.206 343.514 170.368 343.514 145.114C343.514 119.642 364.352 98.56 389.606 98.56C415.078 98.56 435.93 119.629 435.93 145.114C435.93 170.355 415.078 191.206 389.606 191.206Z" fill="#61DAFB"/>
<ellipse cx="389.5" cy="145" rx="46.5" ry="47" fill="#D23F34"/>
</svg>
