<?xml version="1.0" encoding="UTF-8"?>
<svg id="Calque_2" data-name="Calque 2" xmlns="http://www.w3.org/2000/svg" viewBox="0 0 707.59 464.12">
  <defs>
    <style>
      .cls-1 {
        fill: #03665c;
      }

      .cls-2 {
        fill: #02b8ac;
      }
    </style>
  </defs>
  <g id="Layer_1" data-name="Layer 1">
    <g>
      <g>
        <path d="m0,367.53h94.7v17.05h-37.88v77.65h-18.94v-77.65H0v-17.05Z"/>
        <path d="m202.65,414.88c0,28.41-20.83,49.24-49.24,49.24s-49.24-20.83-49.24-49.24,20.83-49.24,49.24-49.24,49.24,20.83,49.24,49.24Zm-19.89,0c0-17.99-12.31-31.25-29.36-31.25s-29.36,13.26-29.36,31.25,12.31,31.25,29.36,31.25,29.36-13.26,29.36-31.25Z"/>
        <path d="m265.54,419.23l-20.27,18.18v24.81h-18.94v-94.7h18.94v45.83l50.95-45.83h26.89l-44.13,39.58,44.13,55.11h-23.11l-34.47-42.99Z"/>
        <path d="m384.48,367.53h94.7v17.05h-37.88v77.65h-18.94v-77.65h-37.88v-17.05Z"/>
        <path d="m587.13,414.88c0,28.41-20.83,49.24-49.24,49.24s-49.24-20.83-49.24-49.24,20.83-49.24,49.24-49.24,49.24,20.83,49.24,49.24Zm-19.89,0c0-17.99-12.31-31.25-29.36-31.25s-29.36,13.26-29.36,31.25,12.31,31.25,29.36,31.25,29.36-13.26,29.36-31.25Z"/>
        <path d="m650.01,419.23l-20.27,18.18v24.81h-18.94v-94.7h18.94v45.83l50.95-45.83h26.89l-44.13,39.58,44.13,55.11h-23.11l-34.47-42.99Z"/>
      </g>
      <g>
        <path class="cls-2" d="m339.63,162.36v145.19l-51.52-44.52h-82.85v-51.11l16.28-15.79v50.62h72.68l29.14,25.23v-102.3l-44.6-39.15c-3.34-3.01-8.55-2.85-11.72.24l-39.06,38.25-3.26,3.18-36.7,35.97-7.73,7.49v-22.71l75.36-73.81c9.28-9.03,24.17-9.44,33.86-.9l50.13,44.11Z"/>
        <polygon class="cls-2" points="224.72 172.21 188.02 208.18 187.85 208.02 224.72 172.21"/>
        <path class="cls-1" d="m527.3,192.96v22.79l-7.81-7.57-36.7-35.97-3.26-3.18-39.06-38.25c-3.17-3.09-8.3-3.26-11.72-.24l-44.6,39.15v102.3l29.13-25.23h72.68v-50.62l16.28,15.79v51.11h-82.85l-51.52,44.52v-145.19l50.13-44.11c9.77-8.55,24.66-8.14,33.86.9l75.44,73.81Z"/>
        <polygon class="cls-1" points="519.65 208.02 519.49 208.18 482.79 172.21 519.65 208.02"/>
        <path class="cls-2" d="m272.49,0c-24.01,0-43.46,19.53-43.46,43.46s19.45,43.46,43.46,43.46,43.46-19.45,43.46-43.46S296.42,0,272.49,0Zm0,70.64c-15.06,0-27.18-12.13-27.18-27.18s12.13-27.18,27.18-27.18,27.18,12.21,27.18,27.18-12.21,27.18-27.18,27.18Z"/>
        <path class="cls-1" d="m435.34,0c-24.01,0-43.46,19.53-43.46,43.46s19.45,43.46,43.46,43.46,43.46-19.45,43.46-43.46S459.27,0,435.34,0Zm0,70.64c-15.06,0-27.18-12.13-27.18-27.18s12.13-27.18,27.18-27.18,27.18,12.21,27.18,27.18-12.21,27.18-27.18,27.18Z"/>
      </g>
    </g>
  </g>
</svg>